<svg width="28" height="28" viewBox="0 0 28 28" fill="none" xmlns="http://www.w3.org/2000/svg">
<path d="M12.0312 26.775L0.48125 15.225C0.30625 15.05 0.182 14.8604 0.1085 14.6563C0.0361663 14.4521 0 14.2334 0 14C0 13.7667 0.0361663 13.5479 0.1085 13.3438C0.182 13.1396 0.30625 12.95 0.48125 12.775L12.0312 1.22502C12.3521 0.904189 12.7528 0.736189 13.2335 0.721023C13.7153 0.707023 14.1312 0.875022 14.4812 1.22502C14.8312 1.54586 15.0138 1.94661 15.029 2.42727C15.043 2.90911 14.875 3.32502 14.525 3.67502L5.95 12.25H25.5063C26.0021 12.25 26.418 12.4174 26.754 12.7523C27.0888 13.0883 27.2563 13.5042 27.2563 14C27.2563 14.4959 27.0888 14.9112 26.754 15.246C26.418 15.582 26.0021 15.75 25.5063 15.75H5.95L14.525 24.325C14.8458 24.6459 15.0138 25.0542 15.029 25.55C15.043 26.0459 14.875 26.4542 14.525 26.775C14.2042 27.125 13.7958 27.3 13.3 27.3C12.8042 27.3 12.3812 27.125 12.0312 26.775Z" fill="#37547B"/>
</svg>
