<svg width="35" height="35" viewBox="0 0 35 35" fill="none" xmlns="http://www.w3.org/2000/svg">
<path d="M0.833988 30.6464C0.602379 30.8772 0.418606 31.1515 0.293217 31.4534C0.167824 31.7554 0.103279 32.0792 0.103279 32.4062C0.103279 32.7331 0.167824 33.0569 0.293217 33.3589C0.418606 33.6609 0.602379 33.9351 0.833988 34.1659C1.30281 34.6287 1.93502 34.8881 2.59375 34.8881C3.25248 34.8881 3.8847 34.6287 4.35352 34.1659L17.5 21.0194L30.6465 34.1659C31.1153 34.6287 31.7475 34.8881 32.4063 34.8881C33.065 34.8881 33.6972 34.6287 34.166 34.1659C34.3976 33.9351 34.5814 33.6609 34.7068 33.3589C34.8322 33.0569 34.8967 32.7331 34.8967 32.4062C34.8967 32.0792 34.8322 31.7554 34.7068 31.4534C34.5814 31.1515 34.3976 30.8772 34.166 30.6464L21.0195 17.4999L34.166 4.35343C34.6327 3.88671 34.8949 3.25371 34.8949 2.59367C34.8949 2.26685 34.8306 1.94323 34.7055 1.64129C34.5804 1.33935 34.3971 1.065 34.166 0.8339C33.9349 0.602804 33.6606 0.419489 33.3586 0.294421C33.0567 0.169352 32.7331 0.10498 32.4063 0.10498C31.7462 0.10498 31.1132 0.367181 30.6465 0.8339L17.5 13.9804L4.35352 0.8339C3.8868 0.367181 3.25379 0.10498 2.59375 0.10498C1.93371 0.10498 1.3007 0.367181 0.833988 0.8339C0.367268 1.30062 0.105068 1.93363 0.105068 2.59367C0.105068 3.25371 0.367268 3.88671 0.833988 4.35343L13.9805 17.4999L0.833988 30.6464Z" fill="#407BFF"/>
</svg>
