<svg width="59" height="59" viewBox="0 0 59 59" fill="none" xmlns="http://www.w3.org/2000/svg">
<path d="M27.6473 5.97365C32.4121 5.59801 37.1787 6.67798 41.3163 9.07065C45.4539 11.4633 48.7674 15.0559 50.8185 19.373C52.8696 23.6901 53.5616 28.5283 52.8028 33.2472C52.044 37.9662 49.8703 42.3436 46.5693 45.8001C43.2682 49.2566 38.9955 51.6294 34.3164 52.6044C29.6373 53.5794 24.7725 53.1107 20.3656 51.2603C15.9587 49.41 12.2175 46.2651 9.6371 42.242C7.05666 38.2188 5.75861 33.507 5.91469 28.7299C5.9319 28.1432 6.18151 27.5872 6.60861 27.1845C7.0357 26.7817 7.6053 26.5651 8.19209 26.5823C8.77888 26.5996 9.3348 26.8492 9.73756 27.2763C10.1403 27.7034 10.3569 28.273 10.3397 28.8597C10.1902 33.3817 11.6445 37.8108 14.4454 41.364C17.2463 44.9172 21.2134 47.3655 25.6452 48.276C30.0771 49.1866 34.6881 48.5007 38.663 46.3396C42.638 44.1786 45.7207 40.6816 47.3662 36.467C49.0116 32.2524 49.1138 27.5917 47.6546 23.3091C46.1954 19.0265 43.2689 15.3978 39.3925 13.0646C35.5161 10.7314 30.9395 9.84414 26.472 10.5596C22.0046 11.2751 17.934 13.5472 14.98 16.9742L14.3782 17.7087H19.9154L20.2163 17.7294C20.7481 17.7999 21.2362 18.0612 21.5897 18.4646C21.9432 18.8681 22.1381 19.3863 22.1381 19.9227C22.1381 20.4592 21.9432 20.9773 21.5897 21.3808C21.2362 21.7843 20.7481 22.0456 20.2163 22.116L19.9154 22.1337H9.59629L9.29539 22.116C8.81661 22.0502 8.37256 21.8294 8.03109 21.4874C7.68963 21.1454 7.46953 20.701 7.40444 20.2221L7.38379 19.9212V8.12125L7.40444 7.8233C7.46953 7.34442 7.68963 6.90002 8.03109 6.55802C8.37256 6.21602 8.81661 5.99523 9.29539 5.9294L9.59629 5.9117L9.89719 5.9294C10.376 5.99523 10.82 6.21602 11.1615 6.55802C11.503 6.90002 11.7231 7.34442 11.7881 7.8233L11.8088 8.12125L11.8058 13.8826C15.8553 9.28448 21.5386 6.4471 27.6473 5.97365ZM28.7624 17.7087L29.0633 17.7294C29.5421 17.7952 29.9862 18.016 30.3276 18.358C30.6691 18.7 30.8892 19.1444 30.9543 19.6233L30.9749 19.9212V29.4999L36.1374 29.5028L36.4383 29.5235C36.9679 29.5964 37.4532 29.8585 37.8045 30.2614C38.1557 30.6643 38.3493 31.1808 38.3493 31.7153C38.3493 32.2499 38.1557 32.7664 37.8045 33.1693C37.4532 33.5722 36.9679 33.8343 36.4383 33.9072L36.1374 33.9278H28.7624L28.4615 33.9072C27.9832 33.8415 27.5395 33.6212 27.1981 33.2797C26.8566 32.9383 26.6363 32.4946 26.5706 32.0162L26.5499 31.7124V19.9212L26.5706 19.6233C26.6357 19.1444 26.8558 18.7 27.1972 18.358C27.5387 18.016 27.9828 17.7952 28.4615 17.7294L28.7624 17.7117V17.7087Z" fill="white"/>
</svg>
