<svg width="47" height="47" viewBox="0 0 47 47" fill="none" xmlns="http://www.w3.org/2000/svg">
<path d="M5.875 43.0837L8.8125 40.1462L11.75 43.0837L14.6875 40.1462L17.625 43.0837L20.5625 40.1462L23.5 43.0837L26.4375 40.1462L29.375 43.0837L32.3125 40.1462L35.25 43.0837L38.1875 40.1462L41.125 43.0837V3.91699L38.1875 6.85449L35.25 3.91699L32.3125 6.85449L29.375 3.91699L26.4375 6.85449L23.5 3.91699L20.5625 6.85449L17.625 3.91699L14.6875 6.85449L11.75 3.91699L8.8125 6.85449L5.875 3.91699M35.25 17.6253H11.75V13.7087H35.25M35.25 25.4587H11.75V21.542H35.25M35.25 33.292H11.75V29.3753H35.25V33.292Z" fill="#37547B"/>
</svg>
