<svg width="47" height="47" viewBox="0 0 47 47" fill="none" xmlns="http://www.w3.org/2000/svg">
<path d="M41.4944 31.9436C41.4841 31.9257 41.47 31.9111 41.4587 31.8942L41.4596 31.8937L28.8143 9.99222L28.8072 9.99598C28.7028 9.82945 28.5507 9.69825 28.3706 9.61951L28.3885 9.60917L24.635 7.44153L28.8044 14.6631L38.2881 31.0891L38.2871 31.0896C38.2984 31.1065 38.3125 31.1211 38.3229 31.1389C38.453 31.3646 38.4882 31.6327 38.4208 31.8843C38.3534 32.1359 38.1888 32.3504 37.9633 32.4808L37.9699 32.4925L23.9352 40.5953L24.5429 41.6477C24.5551 41.6735 24.5636 41.7003 24.5782 41.7257C24.7049 41.9443 24.9112 42.1055 25.154 42.1757C25.3967 42.2458 25.6572 42.2195 25.881 42.1021L25.8834 42.1059L41.1419 33.2967L41.1353 33.2849C41.3607 33.1546 41.5252 32.9401 41.5925 32.6886C41.6598 32.4371 41.6246 32.1691 41.4944 31.9436Z" fill="white"/>
<path d="M34.7236 31.5572C34.9491 31.4269 35.1137 31.2123 35.1811 30.9607C35.2485 30.7091 35.2133 30.441 35.0832 30.2154C35.0728 30.1975 35.0587 30.1829 35.0474 30.166L35.0484 30.1655L22.403 8.26401L22.396 8.26777C22.2916 8.10124 22.1394 7.97005 21.9594 7.8913L21.9772 7.88096L16.8025 4.89317V4.91385C16.6715 4.8392 16.5251 4.79582 16.3746 4.7871C16.2241 4.77838 16.0736 4.80454 15.9349 4.86356L15.9293 4.85369L15.8324 4.90962C15.8306 4.91103 15.8282 4.91103 15.8263 4.91244C15.8244 4.91385 15.823 4.91526 15.8207 4.9162L5.86467 10.6643C5.71881 10.7487 5.59726 10.8694 5.51186 11.0147C5.42645 11.16 5.38009 11.3249 5.37728 11.4934L5.37399 11.4915V17.4671L5.38386 17.4614C5.36177 17.6621 5.39796 17.8713 5.50653 18.0597C5.51311 18.071 5.52157 18.0795 5.52862 18.0903L18.1317 39.9199C18.1439 39.9458 18.1524 39.9726 18.1669 39.9979C18.2937 40.2166 18.4999 40.3778 18.7427 40.4479C18.9855 40.5181 19.246 40.4917 19.4698 40.3744L19.4721 40.3782L34.7307 31.569L34.7236 31.5572ZM13.8862 12.9353C13.575 13.115 13.2176 13.1983 12.859 13.1748C12.5005 13.1513 12.157 13.022 11.872 12.8033C11.5869 12.5846 11.3731 12.2862 11.2577 11.946C11.1422 11.6057 11.1302 11.2389 11.2232 10.8919C11.3163 10.5448 11.5101 10.2332 11.7803 9.99629C12.0504 9.75942 12.3848 9.60798 12.741 9.56114C13.0972 9.51429 13.4594 9.57413 13.7816 9.7331C14.1038 9.89207 14.3716 10.143 14.5512 10.4542C14.6706 10.6607 14.7481 10.8888 14.7793 11.1253C14.8105 11.3619 14.7948 11.6022 14.733 11.8326C14.6713 12.0631 14.5647 12.2791 14.4194 12.4683C14.2741 12.6575 14.0929 12.8162 13.8862 12.9353Z" fill="white"/>
</svg>
