<svg width="42" height="42" viewBox="0 0 42 42" fill="none" xmlns="http://www.w3.org/2000/svg">
<path fill-rule="evenodd" clip-rule="evenodd" d="M21.035 5.25C17.0826 5.25 13.4811 6.5555 11.3505 7.62213C11.158 7.71838 10.9786 7.81288 10.8115 7.90387C10.4807 8.08413 10.199 8.25213 9.97499 8.4L12.3987 11.9683L13.5397 12.4224C17.9987 14.672 23.9785 14.672 28.4384 12.4224L29.7334 11.7504L32.0259 8.4C31.5509 8.09024 31.057 7.81057 30.5471 7.56262C28.4279 6.50737 24.913 5.25 21.035 5.25ZM15.3974 9.289C14.5391 9.12839 13.6914 8.91567 12.859 8.652C14.8549 7.76562 17.8299 6.825 21.0341 6.825C23.254 6.825 25.3531 7.2765 27.0891 7.84875C25.0547 8.13488 22.8839 8.6205 20.8154 9.21812C19.1879 9.68887 17.2856 9.63812 15.3974 9.289ZM29.3624 13.72L29.148 13.8285C24.2419 16.303 17.7354 16.303 12.8292 13.8285L12.6262 13.7253C5.25699 21.8111 -0.369263 36.7474 21.035 36.7474C42.4375 36.7474 36.6739 21.532 29.3624 13.72ZM20.125 21C19.6609 21 19.2157 21.1844 18.8875 21.5126C18.5594 21.8408 18.375 22.2859 18.375 22.75C18.375 23.2141 18.5594 23.6592 18.8875 23.9874C19.2157 24.3156 19.6609 24.5 20.125 24.5V21ZM21.875 19.25V18.375H20.125V19.25C19.1967 19.25 18.3065 19.6187 17.6501 20.2751C16.9937 20.9315 16.625 21.8217 16.625 22.75C16.625 23.6783 16.9937 24.5685 17.6501 25.2249C18.3065 25.8813 19.1967 26.25 20.125 26.25V29.75C19.7631 29.7501 19.41 29.638 19.1145 29.4291C18.8189 29.2202 18.5954 28.9248 18.4747 28.5836C18.3975 28.3648 18.2364 28.1856 18.027 28.0855C17.8176 27.9854 17.5771 27.9726 17.3582 28.0499C17.1394 28.1272 16.9602 28.2882 16.8601 28.4976C16.76 28.707 16.7472 28.9475 16.8245 29.1664C17.0658 29.8489 17.5128 30.4397 18.1039 30.8577C18.695 31.2756 19.4011 31.5 20.125 31.5V32.375H21.875V31.5C22.8032 31.5 23.6935 31.1313 24.3499 30.4749C25.0062 29.8185 25.375 28.9283 25.375 28C25.375 27.0717 25.0062 26.1815 24.3499 25.5251C23.6935 24.8687 22.8032 24.5 21.875 24.5V21C22.6362 21 23.2846 21.4856 23.5261 22.1664C23.5619 22.2778 23.6197 22.3808 23.6961 22.4695C23.7725 22.5581 23.8658 22.6305 23.9706 22.6825C24.0755 22.7344 24.1897 22.7648 24.3065 22.7718C24.4232 22.7789 24.5402 22.7624 24.6506 22.7234C24.7609 22.6844 24.8622 22.6237 24.9487 22.5449C25.0351 22.4661 25.1049 22.3707 25.1538 22.2644C25.2028 22.1582 25.2299 22.0432 25.2336 21.9262C25.2373 21.8093 25.2176 21.6928 25.1755 21.5836C24.9341 20.9011 24.4871 20.3103 23.8961 19.8923C23.305 19.4744 22.5989 19.25 21.875 19.25ZM21.875 26.25V29.75C22.3391 29.75 22.7842 29.5656 23.1124 29.2374C23.4406 28.9093 23.625 28.4641 23.625 28C23.625 27.5359 23.4406 27.0908 23.1124 26.7626C22.7842 26.4344 22.3391 26.25 21.875 26.25Z" fill="white"/>
</svg>
