<svg width="42" height="42" viewBox="0 0 42 42" fill="none" xmlns="http://www.w3.org/2000/svg">
<path d="M19.0312 33.775L7.48125 22.225C7.30625 22.05 7.182 21.8604 7.1085 21.6563C7.03617 21.4521 7 21.2334 7 21C7 20.7667 7.03617 20.5479 7.1085 20.3438C7.182 20.1396 7.30625 19.95 7.48125 19.775L19.0312 8.22502C19.3521 7.90419 19.7528 7.73619 20.2335 7.72102C20.7153 7.70702 21.1312 7.87502 21.4812 8.22502C21.8312 8.54586 22.0138 8.94661 22.029 9.42727C22.043 9.90911 21.875 10.325 21.525 10.675L12.95 19.25H32.5063C33.0021 19.25 33.418 19.4174 33.754 19.7523C34.0888 20.0883 34.2563 20.5042 34.2563 21C34.2563 21.4959 34.0888 21.9112 33.754 22.246C33.418 22.582 33.0021 22.75 32.5063 22.75H12.95L21.525 31.325C21.8458 31.6459 22.0138 32.0542 22.029 32.55C22.043 33.0459 21.875 33.4542 21.525 33.775C21.2042 34.125 20.7958 34.3 20.3 34.3C19.8042 34.3 19.3812 34.125 19.0312 33.775Z" fill="#37547B"/>
</svg>
