<svg width="372" height="277" viewBox="0 0 372 277" fill="none" xmlns="http://www.w3.org/2000/svg">
<path d="M371.405 243.196H0V243.381H371.405V243.196Z" fill="#EBEBEB"/>
<path d="M334.19 255.147H309.588V255.333H334.19V255.147Z" fill="#EBEBEB"/>
<path d="M246.033 257.168H239.578V257.354H246.033V257.168Z" fill="#EBEBEB"/>
<path d="M308.845 248.254H294.591V248.44H308.845V248.254Z" fill="#EBEBEB"/>
<path d="M71.0497 249.502H38.9678V249.688H71.0497V249.502Z" fill="#EBEBEB"/>
<path d="M82.3702 249.502H77.6682V249.688H82.3702V249.502Z" fill="#EBEBEB"/>
<path d="M167.243 252.637H97.657V252.823H167.243V252.637Z" fill="#EBEBEB"/>
<path d="M176.046 210.066H32.6168C31.4932 210.064 30.4163 209.617 29.6225 208.822C28.8287 208.026 28.3828 206.949 28.3828 205.825V4.2043C28.3926 3.08713 28.8428 2.01894 29.6355 1.23174C30.4283 0.44454 31.4996 0.00191376 32.6168 0H176.046C177.171 0 178.25 0.446865 179.045 1.24229C179.84 2.03771 180.287 3.11654 180.287 4.24144V205.825C180.287 206.95 179.84 208.029 179.045 208.824C178.25 209.62 177.171 210.066 176.046 210.066ZM32.6168 0.148562C31.5425 0.15053 30.5128 0.578697 29.7538 1.33908C28.9948 2.09947 28.5685 3.12994 28.5685 4.2043V205.825C28.5685 206.899 28.9948 207.93 29.7538 208.69C30.5128 209.451 31.5425 209.879 32.6168 209.881H176.046C177.121 209.879 178.151 209.451 178.912 208.691C179.672 207.931 180.1 206.9 180.102 205.825V4.2043C180.1 3.12925 179.672 2.0988 178.912 1.33863C178.151 0.578456 177.121 0.150526 176.046 0.148562H32.6168Z" fill="#EBEBEB"/>
<path d="M336.723 210.066H193.286C192.162 210.064 191.084 209.617 190.289 208.822C189.494 208.027 189.047 206.949 189.045 205.825V4.2043C189.057 3.08646 189.508 2.01827 190.302 1.23128C191.096 0.444281 192.168 0.00189289 193.286 0H336.723C337.839 0.00386595 338.908 0.447356 339.699 1.23435C340.49 2.02134 340.94 3.08842 340.949 4.2043V205.825C340.949 206.947 340.505 208.024 339.712 208.819C338.92 209.614 337.845 210.063 336.723 210.066ZM193.286 0.148562C192.211 0.150526 191.181 0.578456 190.421 1.33863C189.661 2.0988 189.233 3.12925 189.231 4.2043V205.825C189.233 206.9 189.661 207.931 190.421 208.691C191.181 209.451 192.211 209.879 193.286 209.881H336.723C337.798 209.879 338.828 209.451 339.588 208.691C340.349 207.931 340.777 206.9 340.779 205.825V4.2043C340.777 3.12925 340.349 2.0988 339.588 1.33863C338.828 0.578456 337.798 0.150526 336.723 0.148562H193.286Z" fill="#EBEBEB"/>
<path d="M220.436 15.1087L219.804 16.3789C219.768 16.4519 219.715 16.515 219.649 16.5628C219.583 16.6107 219.506 16.6419 219.426 16.6537L218.022 16.8617C217.928 16.8749 217.84 16.914 217.768 16.9746C217.696 17.0352 217.642 17.1149 217.612 17.2046C217.583 17.2944 217.579 17.3905 217.602 17.4822C217.624 17.5739 217.672 17.6574 217.739 17.7234L218.757 18.7187C218.815 18.7762 218.859 18.8464 218.885 18.9239C218.91 19.0013 218.918 19.0837 218.906 19.1644L218.661 20.5609C218.643 20.6553 218.652 20.7529 218.688 20.8421C218.723 20.9314 218.784 21.0086 218.862 21.0648C218.94 21.1209 219.032 21.1537 219.128 21.1591C219.224 21.1646 219.319 21.1426 219.403 21.0957L220.659 20.4346C220.733 20.398 220.814 20.3789 220.896 20.3789C220.979 20.3789 221.06 20.398 221.134 20.4346L222.389 21.0957C222.473 21.1426 222.569 21.1646 222.665 21.1591C222.761 21.1537 222.853 21.1209 222.931 21.0648C223.009 21.0086 223.069 20.9314 223.105 20.8421C223.141 20.7529 223.15 20.6553 223.132 20.5609L222.895 19.1644C222.879 19.0836 222.884 19.0001 222.91 18.922C222.936 18.8438 222.982 18.7738 223.043 18.7187L224.053 17.7234C224.121 17.6574 224.169 17.5739 224.191 17.4822C224.214 17.3905 224.21 17.2944 224.181 17.2046C224.151 17.1149 224.097 17.0352 224.025 16.9746C223.952 16.914 223.865 16.8749 223.771 16.8617L222.367 16.6537C222.287 16.6419 222.21 16.6107 222.144 16.5628C222.078 16.515 222.025 16.4519 221.988 16.3789L221.357 15.1087C221.317 15.02 221.252 14.9447 221.171 14.8919C221.089 14.8391 220.994 14.811 220.896 14.811C220.799 14.811 220.704 14.8391 220.622 14.8919C220.541 14.9447 220.476 15.02 220.436 15.1087Z" fill="#F5F5F5"/>
<path d="M204.495 225.212L203.871 226.49C203.834 226.564 203.779 226.627 203.712 226.675C203.645 226.723 203.567 226.754 203.485 226.765L202.081 226.973C201.988 226.986 201.9 227.025 201.828 227.086C201.755 227.146 201.701 227.226 201.672 227.316C201.642 227.405 201.639 227.502 201.661 227.593C201.684 227.685 201.732 227.769 201.799 227.835L202.817 228.822C202.876 228.881 202.92 228.952 202.946 229.031C202.972 229.11 202.978 229.194 202.965 229.276L202.72 230.672C202.705 230.766 202.717 230.862 202.753 230.949C202.79 231.037 202.85 231.113 202.927 231.168C203.004 231.224 203.095 231.257 203.189 231.263C203.284 231.27 203.379 231.251 203.463 231.207L204.718 230.546C204.791 230.509 204.871 230.49 204.952 230.49C205.034 230.49 205.114 230.509 205.186 230.546L206.442 231.207C206.526 231.254 206.621 231.276 206.717 231.27C206.813 231.265 206.905 231.232 206.983 231.176C207.061 231.12 207.122 231.043 207.157 230.953C207.193 230.864 207.202 230.766 207.184 230.672L206.947 229.276C206.934 229.194 206.94 229.11 206.966 229.031C206.992 228.952 207.036 228.881 207.095 228.822L208.113 227.835C208.181 227.769 208.228 227.685 208.251 227.593C208.273 227.502 208.27 227.405 208.24 227.316C208.211 227.226 208.157 227.146 208.084 227.086C208.012 227.025 207.924 226.986 207.831 226.973L206.427 226.765C206.345 226.755 206.266 226.724 206.199 226.676C206.131 226.628 206.077 226.564 206.041 226.49L205.417 225.212C205.374 225.126 205.309 225.053 205.227 225.003C205.146 224.952 205.052 224.925 204.956 224.925C204.86 224.925 204.766 224.952 204.685 225.003C204.603 225.053 204.538 225.126 204.495 225.212Z" fill="#F0F0F0"/>
<path d="M315.204 145.13L314.572 146.4C314.537 146.474 314.483 146.538 314.417 146.588C314.352 146.637 314.275 146.669 314.194 146.682L312.79 146.883C312.696 146.898 312.609 146.938 312.537 146.999C312.465 147.061 312.411 147.141 312.382 147.231C312.353 147.321 312.349 147.417 312.371 147.509C312.393 147.601 312.44 147.685 312.507 147.752L313.525 148.74C313.584 148.798 313.628 148.87 313.652 148.949C313.677 149.028 313.682 149.112 313.666 149.193L313.429 150.59C313.411 150.684 313.42 150.782 313.456 150.871C313.491 150.96 313.552 151.037 313.63 151.093C313.708 151.15 313.8 151.182 313.896 151.188C313.992 151.193 314.087 151.171 314.171 151.124L315.427 150.463C315.499 150.423 315.581 150.402 315.664 150.402C315.748 150.402 315.829 150.423 315.902 150.463L317.157 151.124C317.241 151.171 317.337 151.193 317.433 151.188C317.529 151.182 317.621 151.15 317.699 151.093C317.777 151.037 317.837 150.96 317.873 150.871C317.909 150.782 317.918 150.684 317.9 150.59L317.663 149.193C317.647 149.112 317.652 149.028 317.677 148.949C317.701 148.87 317.745 148.798 317.804 148.74L318.821 147.752C318.888 147.685 318.935 147.601 318.958 147.509C318.98 147.417 318.976 147.321 318.947 147.231C318.918 147.141 318.864 147.061 318.792 146.999C318.72 146.938 318.632 146.898 318.539 146.883L317.135 146.682C317.054 146.669 316.977 146.637 316.911 146.588C316.845 146.538 316.792 146.474 316.756 146.4L316.125 145.13C316.085 145.041 316.02 144.966 315.939 144.913C315.857 144.86 315.762 144.832 315.664 144.832C315.567 144.832 315.472 144.86 315.39 144.913C315.308 144.966 315.244 145.041 315.204 145.13Z" fill="#F0F0F0"/>
<path d="M159.882 186.943L159.503 187.686C159.482 187.729 159.451 187.766 159.412 187.795C159.373 187.823 159.328 187.842 159.281 187.849L158.441 187.968C158.385 187.976 158.332 187.999 158.288 188.036C158.244 188.072 158.211 188.12 158.193 188.174C158.176 188.229 158.173 188.287 158.187 188.342C158.201 188.398 158.23 188.448 158.27 188.488L158.879 189.082C158.914 189.116 158.94 189.159 158.954 189.205C158.968 189.252 158.971 189.302 158.961 189.349L158.82 190.181C158.808 190.237 158.813 190.296 158.833 190.349C158.854 190.403 158.889 190.449 158.936 190.483C158.982 190.517 159.037 190.536 159.094 190.54C159.152 190.543 159.209 190.529 159.258 190.501L160.001 190.107C160.045 190.085 160.093 190.073 160.142 190.073C160.191 190.073 160.24 190.085 160.283 190.107L161.026 190.501C161.076 190.528 161.133 190.541 161.191 190.537C161.248 190.534 161.303 190.514 161.349 190.481C161.396 190.447 161.432 190.402 161.454 190.349C161.475 190.296 161.482 190.238 161.472 190.181L161.323 189.349C161.317 189.301 161.321 189.252 161.337 189.205C161.352 189.159 161.378 189.117 161.412 189.082L162.022 188.488C162.062 188.448 162.091 188.398 162.105 188.342C162.119 188.287 162.116 188.229 162.098 188.174C162.081 188.12 162.048 188.072 162.004 188.036C161.96 187.999 161.907 187.976 161.851 187.968L161.011 187.849C160.964 187.842 160.919 187.823 160.88 187.795C160.841 187.766 160.81 187.729 160.789 187.686L160.41 186.943C160.383 186.896 160.344 186.858 160.298 186.831C160.252 186.805 160.199 186.791 160.146 186.791C160.093 186.791 160.04 186.805 159.994 186.831C159.947 186.858 159.909 186.896 159.882 186.943Z" fill="#F0F0F0"/>
<path d="M244.889 186.943L244.511 187.686C244.489 187.729 244.458 187.766 244.419 187.795C244.38 187.823 244.335 187.842 244.288 187.849L243.448 187.968C243.392 187.976 243.339 187.999 243.295 188.036C243.251 188.072 243.218 188.12 243.201 188.175C243.183 188.229 243.18 188.287 243.194 188.342C243.208 188.398 243.237 188.448 243.277 188.488L243.887 189.082C243.921 189.117 243.947 189.159 243.962 189.205C243.978 189.252 243.982 189.301 243.976 189.35L243.827 190.181C243.818 190.237 243.825 190.294 243.846 190.345C243.868 190.397 243.903 190.442 243.949 190.475C243.994 190.508 244.047 190.528 244.103 190.533C244.159 190.537 244.215 190.526 244.265 190.501L245.008 190.107C245.052 190.085 245.1 190.073 245.149 190.073C245.198 190.073 245.247 190.085 245.29 190.107L246.033 190.501C246.083 190.529 246.14 190.543 246.197 190.54C246.254 190.536 246.31 190.517 246.356 190.483C246.402 190.449 246.438 190.403 246.458 190.349C246.479 190.296 246.483 190.238 246.472 190.181L246.33 189.35C246.321 189.302 246.324 189.252 246.338 189.206C246.352 189.159 246.378 189.117 246.412 189.082L247.021 188.488C247.062 188.448 247.091 188.398 247.105 188.342C247.118 188.287 247.116 188.229 247.098 188.175C247.08 188.12 247.048 188.072 247.004 188.036C246.96 187.999 246.907 187.976 246.85 187.968L246.011 187.849C245.963 187.842 245.918 187.823 245.879 187.795C245.841 187.766 245.809 187.729 245.788 187.686L245.409 186.943C245.382 186.898 245.344 186.861 245.298 186.836C245.253 186.81 245.202 186.797 245.149 186.797C245.097 186.797 245.046 186.81 245 186.836C244.955 186.861 244.917 186.898 244.889 186.943Z" fill="#F5F5F5"/>
<path d="M57.7385 16.2676L57.3597 17.0104C57.339 17.0555 57.3068 17.0943 57.2664 17.123C57.226 17.1517 57.1787 17.1692 57.1294 17.1739L56.29 17.3001C56.2341 17.3091 56.1818 17.3334 56.139 17.3704C56.0961 17.4074 56.0644 17.4556 56.0475 17.5096C56.0305 17.5636 56.0289 17.6212 56.0429 17.6761C56.0569 17.7309 56.0858 17.7808 56.1266 17.8201L56.7283 18.4069C56.7636 18.441 56.7901 18.4831 56.8056 18.5297C56.8212 18.5763 56.8252 18.6259 56.8174 18.6743L56.6763 19.5137C56.6675 19.5691 56.6742 19.6258 56.6956 19.6777C56.717 19.7295 56.7524 19.7744 56.7977 19.8075C56.843 19.8405 56.8966 19.8604 56.9525 19.8649C57.0084 19.8694 57.0645 19.8584 57.1145 19.8331L57.8573 19.4394C57.9011 19.4172 57.9494 19.4057 57.9985 19.4057C58.0475 19.4057 58.0959 19.4172 58.1396 19.4394L58.8824 19.8331C58.9325 19.8584 58.9885 19.8694 59.0444 19.8649C59.1003 19.8604 59.1539 19.8405 59.1992 19.8075C59.2446 19.7744 59.2799 19.7295 59.3013 19.6777C59.3227 19.6258 59.3294 19.5691 59.3207 19.5137L59.1795 18.6743C59.1717 18.6259 59.1758 18.5763 59.1913 18.5297C59.2068 18.4831 59.2334 18.441 59.2687 18.4069L59.8778 17.8201C59.9187 17.7803 59.9475 17.7299 59.9611 17.6745C59.9747 17.6191 59.9725 17.561 59.9547 17.5068C59.9369 17.4526 59.9042 17.4045 59.8604 17.3679C59.8166 17.3314 59.7634 17.3079 59.7069 17.3001L58.8676 17.1739C58.8184 17.1685 58.7715 17.1507 58.7312 17.1221C58.6909 17.0935 58.6585 17.0551 58.6373 17.0104L58.2659 16.2676C58.2408 16.2193 58.203 16.1789 58.1565 16.1506C58.11 16.1224 58.0566 16.1074 58.0022 16.1074C57.9478 16.1074 57.8944 16.1224 57.8479 16.1506C57.8014 16.1789 57.7636 16.2193 57.7385 16.2676Z" fill="#F5F5F5"/>
<path d="M64.1935 156.458L63.5398 157.773C63.5031 157.849 63.4478 157.915 63.379 157.964C63.3102 158.014 63.2302 158.045 63.1462 158.055L61.6605 158.271C61.5635 158.284 61.4721 158.324 61.3969 158.387C61.3217 158.449 61.2657 158.532 61.2354 158.625C61.2051 158.718 61.2018 158.818 61.2258 158.913C61.2497 159.008 61.3 159.094 61.3708 159.162L62.4182 160.187C62.4796 160.247 62.5253 160.321 62.5512 160.402C62.5771 160.484 62.5825 160.571 62.5668 160.655L62.3216 162.141C62.309 162.234 62.3218 162.329 62.3585 162.416C62.3953 162.503 62.4547 162.579 62.5306 162.635C62.6065 162.691 62.696 162.726 62.79 162.736C62.8839 162.745 62.9787 162.73 63.0644 162.69L64.3569 162.007C64.4323 161.967 64.5165 161.945 64.6021 161.945C64.6876 161.945 64.7718 161.967 64.8472 162.007L66.1471 162.69C66.2329 162.73 66.3277 162.745 66.4216 162.736C66.5155 162.726 66.6051 162.691 66.681 162.635C66.7568 162.579 66.8163 162.503 66.853 162.416C66.8898 162.329 66.9025 162.234 66.8899 162.141L66.6374 160.655C66.6232 160.57 66.6301 160.483 66.6573 160.402C66.6844 160.32 66.7312 160.246 66.7933 160.187L67.8407 159.162C67.9115 159.094 67.9618 159.008 67.9858 158.913C68.0097 158.818 68.0064 158.718 67.9761 158.625C67.9458 158.532 67.8899 158.449 67.8147 158.387C67.7395 158.324 67.6481 158.284 67.551 158.271L66.0654 158.055C65.9814 158.045 65.9013 158.014 65.8325 157.964C65.7637 157.915 65.7084 157.849 65.6717 157.773L65.0255 156.458C64.9761 156.395 64.913 156.344 64.841 156.308C64.7689 156.273 64.6897 156.255 64.6095 156.255C64.5293 156.255 64.4501 156.273 64.378 156.308C64.3059 156.344 64.2428 156.395 64.1935 156.458Z" fill="#F0F0F0"/>
<path d="M143.763 33.3447C143.763 33.5404 143.821 33.7317 143.93 33.8943C144.039 34.0569 144.194 34.1835 144.375 34.2581C144.556 34.3326 144.755 34.3518 144.947 34.313C145.138 34.2743 145.314 34.1795 145.452 34.0406C145.59 33.9017 145.684 33.7249 145.721 33.5328C145.758 33.3407 145.738 33.1418 145.662 32.9614C145.586 32.781 145.458 32.6272 145.295 32.5196C145.131 32.4119 144.939 32.3552 144.744 32.3567C144.614 32.3567 144.486 32.3823 144.367 32.4321C144.247 32.4818 144.139 32.5547 144.048 32.6465C143.957 32.7384 143.885 32.8473 143.836 32.9672C143.787 33.087 143.762 33.2153 143.763 33.3447Z" fill="#F0F0F0"/>
<path d="M116.391 225.814C116.936 225.814 117.379 225.372 117.379 224.826C117.379 224.28 116.936 223.838 116.391 223.838C115.845 223.838 115.403 224.28 115.403 224.826C115.403 225.372 115.845 225.814 116.391 225.814Z" fill="#F5F5F5"/>
<path d="M79.5177 58.0433C74.2841 56.4777 69.1985 54.4544 64.3198 51.9968C65.1214 55.179 66.7325 58.0998 68.9967 60.4752C71.2608 62.8507 74.1009 64.6 77.241 65.5532C80.3811 66.5065 83.7144 66.6312 86.917 65.9153C90.1196 65.1994 93.0825 63.6672 95.5178 61.4676C90.0942 60.7982 84.7402 59.6524 79.5177 58.0433Z" fill="#F5F5F5"/>
<path d="M82.7637 45.9278C89.5084 47.978 97.1296 46.6707 101.69 49.2853C102.129 44.9034 101.034 40.505 98.591 36.8405C96.1486 33.1761 92.5104 30.4725 88.2971 29.1911C84.0838 27.9096 79.5564 28.1297 75.4872 29.8137C71.4181 31.4977 68.0592 34.5414 65.9836 38.4255C71.213 38.8192 76.019 43.8777 82.7637 45.9278Z" fill="#F5F5F5"/>
<path d="M54.1211 38.6781C53.2668 41.4784 65.4043 47.6438 81.2262 52.4497C97.048 57.2557 110.56 58.8899 111.407 56.0969C112.253 53.304 100.123 47.1312 84.3014 42.3401C68.4796 37.549 54.9679 35.8851 54.1211 38.6781Z" fill="#F5F5F5"/>
<path d="M291.27 112.484C288.943 121.468 284.189 129.638 277.53 136.102C270.87 142.565 262.561 147.073 253.511 149.13C244.462 151.188 235.02 150.717 226.221 147.768C217.421 144.82 209.602 139.508 203.619 132.413C196.548 124.022 192.395 113.561 191.786 102.604C191.593 99.1597 191.76 95.7043 192.284 92.2941C192.546 90.5564 192.899 88.8333 193.338 87.1316C196.684 74.3358 204.908 63.3591 216.249 56.5525C227.589 49.7459 241.143 47.6508 254.01 50.7158C266.876 53.7808 278.03 61.7622 285.083 72.9506C292.137 84.139 294.528 97.6446 291.746 110.575C291.59 111.206 291.434 111.845 291.27 112.484Z" fill="#EBEBEB"/>
<path d="M318.888 68.5388C318.507 70.0084 317.73 71.3449 316.641 72.4022C315.552 73.4595 314.193 74.1969 312.712 74.5336C311.232 74.8702 309.688 74.7933 308.249 74.3111C306.809 73.8289 305.53 72.9601 304.552 71.7998C303.398 70.4271 302.72 68.7174 302.62 66.927C302.588 66.3636 302.616 65.7984 302.702 65.2408C302.745 64.9558 302.802 64.6732 302.873 64.394C303.415 62.2959 304.759 60.4944 306.616 59.3765C308.472 58.2586 310.693 57.9135 312.801 58.4155C314.909 58.9175 316.736 60.2264 317.89 62.061C319.043 63.8956 319.431 66.1095 318.97 68.2269C318.94 68.3383 318.918 68.4349 318.888 68.5388Z" fill="#EBEBEB"/>
<path d="M291.724 110.56L289.413 107.641L285.982 116.621L281.064 109.824L278.427 99.5662L267.137 92.7249L268.526 95.7704L274.787 98.6228L277.759 104.565L268.37 104.216L258.498 95.0796L264.589 105.167L269.372 108.94L265.257 111.421L258.015 121.368L258.616 125.654C258.616 125.654 252.674 129.94 252.028 130.111C251.382 130.281 238.806 138.512 238.806 138.512L243.641 121.769L243.515 109.044L231.63 109.698L221.951 101.46L228.458 87.7407L233.324 85.178L238.278 86.4631L254.828 92.5467L254.754 89.5383L245.394 80.6246L239.378 79.5327L234.542 81.7091L231.757 80.9663L236.585 74.9049L241.042 72.9291L251.136 70.2847L258.676 73.0108L270.167 75.0238C270.167 75.0238 279.601 72.5651 284.147 71.3618C288.012 77.0351 290.678 83.4383 291.981 90.1787C293.284 96.9191 293.196 103.855 291.724 110.56Z" fill="#FAFAFA"/>
<path d="M256.269 148.443C246.882 151.134 236.917 151.053 227.575 148.208C218.234 145.364 209.914 139.879 203.619 132.413L210.794 136.209L217.316 141.632L234.527 146.088L249.131 146.14L256.269 148.443Z" fill="#FAFAFA"/>
<path d="M229.751 53.8389L224.507 54.9605L227.337 59.3208L224.893 68.7545L246.13 65.1741L247.051 61.6161L240.165 59.5065L229.751 53.8389Z" fill="#FAFAFA"/>
<path d="M222.278 63.592L218.809 70.9309L210.958 74.9569L202.423 78.5001L198.33 82.7416L194.973 81.8725C199.372 70.2165 207.933 60.6029 219.003 54.8862L222.278 63.592Z" fill="#FAFAFA"/>
<path d="M212.874 112.484L206.739 116.94L206.486 121.538L205.803 124.16L205.439 128.58L203.589 127.325L200.061 120.498L197.09 109.705L193.071 103.607L191.749 102.567C191.556 99.1223 191.723 95.667 192.246 92.2568L193.806 94.151L200.707 93.3339L206.828 94.9161L208.165 100.576L210.586 105.65L216.157 108.747L212.874 112.484Z" fill="#FAFAFA"/>
<path d="M185.702 276.741C265.244 276.741 329.726 272.976 329.726 268.332C329.726 263.688 265.244 259.924 185.702 259.924C106.16 259.924 41.679 263.688 41.679 268.332C41.679 272.976 106.16 276.741 185.702 276.741Z" fill="#F5F5F5"/>
<path d="M170.742 84.6803C173.557 82.8827 175.199 79.2281 177.427 76.7917C181.884 71.956 188.77 64.0599 189.81 59.5733L172.517 53.6309L166.79 67.5957C165.58 70.8343 160.187 75.566 157.193 77.1036C155.44 78.0173 153.524 78.827 151.578 79.6366C147.67 81.2114 143.474 82.6079 139.41 84.0118L140.435 91.3879C142.801 91.4092 145.166 91.3101 147.522 91.0907C149.862 90.8679 152.209 90.5708 154.556 90.1251C156.967 89.6893 159.348 89.1063 161.687 88.3795C164.094 87.6515 168.261 86.255 170.742 84.6803Z" fill="#407BFF"/>
<path opacity="0.8" d="M170.742 84.6803C173.557 82.8827 175.199 79.2281 177.427 76.7917C181.884 71.956 188.77 64.0599 189.81 59.5733L172.517 53.6309L166.79 67.5957C165.58 70.8343 160.187 75.566 157.193 77.1036C155.44 78.0173 153.524 78.827 151.578 79.6366C147.67 81.2114 143.474 82.6079 139.41 84.0118L140.435 91.3879C142.801 91.4092 145.166 91.3101 147.522 91.0907C149.862 90.8679 152.209 90.5708 154.556 90.1251C156.967 89.6893 159.348 89.1063 161.687 88.3795C164.094 87.6515 168.261 86.255 170.742 84.6803Z" fill="white"/>
<path d="M152.692 91.4695L149.557 79.6514C149.557 79.6514 131.395 82.9643 130.816 87.9931C130.222 93.1928 142.864 93.0665 152.692 91.4695Z" fill="#263238"/>
<path d="M139.648 85.3116L142.278 81.5976C142.278 81.5976 133.052 80.4314 132.807 81.9095C132.502 83.9374 135.243 85.319 139.648 85.3116Z" fill="#263238"/>
<path d="M223.326 164.421C223.134 164.421 222.947 164.356 222.798 164.235C219.211 161.368 207.823 151.213 211.656 141.059C214.791 132.725 222.397 125.705 231.489 122.727C234.982 121.683 238.551 120.913 242.163 120.424C244.607 120.03 247.133 119.622 249.547 119.042C260.652 116.376 266.245 109.044 264.143 99.9076C263.185 95.7702 260.622 92.4275 257.903 88.8843C255.742 86.0765 253.521 83.1721 252.176 79.8443C252.176 79.8443 252.176 79.7849 252.176 79.7552C250.906 75.2166 252.711 70.8415 254.464 66.6372C254.873 65.6493 255.259 64.7133 255.616 63.77C257.101 59.7365 258.475 55.3985 258.245 51.0159C257.97 45.8162 254.487 40.2006 249.376 36.7911C241.391 31.4503 226.653 26.6815 220.406 33.3891C219.874 33.9933 219.378 34.6282 218.921 35.2906C218.295 36.183 217.594 37.0205 216.826 37.7939C215.547 38.9609 214.021 39.8237 212.362 40.3176C210.702 40.8115 208.953 40.9239 207.244 40.6463C205.471 40.3446 203.791 39.6381 202.335 38.5817C200.879 37.5253 199.687 36.1475 198.85 34.5553C198.801 34.4559 198.772 34.3477 198.764 34.237C198.757 34.1262 198.772 34.0151 198.808 33.9101C198.844 33.8051 198.9 33.7083 198.974 33.6252C199.047 33.5422 199.136 33.4745 199.236 33.4262C199.336 33.3767 199.445 33.3474 199.556 33.34C199.668 33.3326 199.779 33.3473 199.885 33.3832C199.99 33.4191 200.088 33.4755 200.172 33.5491C200.255 33.6228 200.324 33.7123 200.373 33.8125C201.059 35.142 202.042 36.296 203.245 37.1852C204.449 38.0745 205.841 38.6751 207.313 38.9407C208.786 39.2064 210.3 39.1299 211.738 38.7173C213.176 38.3046 214.5 37.5668 215.608 36.5608C216.303 35.8544 216.94 35.0917 217.509 34.2804C218.01 33.5694 218.551 32.8874 219.129 32.2377C226.809 24.0074 243.441 30.8041 250.327 35.3798C255.861 39.0938 259.642 45.1849 259.946 50.9268C260.191 55.6213 258.78 60.1599 257.205 64.3642C256.849 65.3373 256.462 66.3252 256.039 67.2909C254.405 71.2277 252.711 75.2909 253.811 79.2575C255.066 82.355 257.213 85.148 259.292 87.8518C261.996 91.3802 264.797 95.0274 265.837 99.5288C268.132 109.52 261.915 117.824 249.985 120.691C247.512 121.286 244.956 121.702 242.483 122.095C238.964 122.568 235.487 123.313 232.083 124.324C223.467 127.139 216.269 133.78 213.305 141.639C209.881 150.731 220.57 160.209 223.927 162.898C224.056 163.009 224.148 163.157 224.191 163.322C224.234 163.486 224.227 163.66 224.17 163.82C224.113 163.981 224.009 164.12 223.872 164.221C223.734 164.321 223.57 164.378 223.4 164.383L223.326 164.421Z" fill="#407BFF"/>
<path opacity="0.7" d="M223.326 164.421C223.134 164.421 222.947 164.356 222.798 164.235C219.211 161.368 207.823 151.213 211.656 141.059C214.791 132.725 222.397 125.705 231.489 122.727C234.982 121.683 238.551 120.913 242.163 120.424C244.607 120.03 247.133 119.622 249.547 119.042C260.652 116.376 266.245 109.044 264.143 99.9076C263.185 95.7702 260.622 92.4275 257.903 88.8843C255.742 86.0765 253.521 83.1721 252.176 79.8443C252.176 79.8443 252.176 79.7849 252.176 79.7552C250.906 75.2166 252.711 70.8415 254.464 66.6372C254.873 65.6493 255.259 64.7133 255.616 63.77C257.101 59.7365 258.475 55.3985 258.245 51.0159C257.97 45.8162 254.487 40.2006 249.376 36.7911C241.391 31.4503 226.653 26.6815 220.406 33.3891C219.874 33.9933 219.378 34.6282 218.921 35.2906C218.295 36.183 217.594 37.0205 216.826 37.7939C215.547 38.9609 214.021 39.8237 212.362 40.3176C210.702 40.8115 208.953 40.9239 207.244 40.6463C205.471 40.3446 203.791 39.6381 202.335 38.5817C200.879 37.5253 199.687 36.1475 198.85 34.5553C198.801 34.4559 198.772 34.3477 198.764 34.237C198.757 34.1262 198.772 34.0151 198.808 33.9101C198.844 33.8051 198.9 33.7083 198.974 33.6252C199.047 33.5422 199.136 33.4745 199.236 33.4262C199.336 33.3767 199.445 33.3474 199.556 33.34C199.668 33.3326 199.779 33.3473 199.885 33.3832C199.99 33.4191 200.088 33.4755 200.172 33.5491C200.255 33.6228 200.324 33.7123 200.373 33.8125C201.059 35.142 202.042 36.296 203.245 37.1852C204.449 38.0745 205.841 38.6751 207.313 38.9407C208.786 39.2064 210.3 39.1299 211.738 38.7173C213.176 38.3046 214.5 37.5668 215.608 36.5608C216.303 35.8544 216.94 35.0917 217.509 34.2804C218.01 33.5694 218.551 32.8874 219.129 32.2377C226.809 24.0074 243.441 30.8041 250.327 35.3798C255.861 39.0938 259.642 45.1849 259.946 50.9268C260.191 55.6213 258.78 60.1599 257.205 64.3642C256.849 65.3373 256.462 66.3252 256.039 67.2909C254.405 71.2277 252.711 75.2909 253.811 79.2575C255.066 82.355 257.213 85.148 259.292 87.8518C261.996 91.3802 264.797 95.0274 265.837 99.5288C268.132 109.52 261.915 117.824 249.985 120.691C247.512 121.286 244.956 121.702 242.483 122.095C238.964 122.568 235.487 123.313 232.083 124.324C223.467 127.139 216.269 133.78 213.305 141.639C209.881 150.731 220.57 160.209 223.927 162.898C224.056 163.009 224.148 163.157 224.191 163.322C224.234 163.486 224.227 163.66 224.17 163.82C224.113 163.981 224.009 164.12 223.872 164.221C223.734 164.321 223.57 164.378 223.4 164.383L223.326 164.421Z" fill="white"/>
<path opacity="0.2" d="M173.075 71.8148C172.116 73.4119 171.901 78.5001 172.391 83.3135C174.293 81.3971 175.674 78.7007 177.442 76.7694L177.814 76.3683C175.853 73.605 173.624 70.8343 173.075 71.8148Z" fill="black"/>
<path d="M172.503 53.5714C172.503 53.5714 168.046 71.7628 180.718 101.854L214.672 95.8224C214.093 91.1947 206.798 70.1954 207.987 47.7032C204.151 47.2672 200.279 47.2672 196.443 47.7032C191.585 48.3173 186.76 49.1776 181.988 50.2807C178.754 51.158 175.585 52.2575 172.503 53.5714Z" fill="#407BFF"/>
<path opacity="0.8" d="M172.503 53.5714C172.503 53.5714 168.046 71.7628 180.718 101.854L214.672 95.8224C214.093 91.1947 206.798 70.1954 207.987 47.7032C204.151 47.2672 200.279 47.2672 196.443 47.7032C191.585 48.3173 186.76 49.1776 181.988 50.2807C178.754 51.158 175.585 52.2575 172.503 53.5714Z" fill="white"/>
<path opacity="0.2" d="M204.057 64.6914C205.539 66.548 207.234 68.2234 209.108 69.6831C208.885 68.1306 208.677 66.541 208.507 64.9217L204.057 64.6914Z" fill="black"/>
<path d="M180.718 101.891C180.718 101.891 163.514 121.873 164.918 139.121C166.404 157.067 185.078 186.475 185.078 186.475L196.428 180.785C196.428 180.785 189 149.876 183.236 140.896C189.52 130.43 197.817 117.936 203.544 98.7786C193.056 100.65 180.718 101.891 180.718 101.891Z" fill="#407BFF"/>
<path opacity="0.8" d="M180.718 101.891C180.718 101.891 163.514 121.873 164.918 139.121C166.404 157.067 185.078 186.475 185.078 186.475L196.428 180.785C196.428 180.785 189 149.876 183.236 140.896C189.52 130.43 197.817 117.936 203.544 98.7786C193.056 100.65 180.718 101.891 180.718 101.891Z" fill="white"/>
<path opacity="0.2" d="M196.844 112.35C193.725 114.705 191.823 121.628 191.771 126.463C194.408 121.742 196.776 116.877 198.865 111.889C198.515 111.818 198.153 111.822 197.805 111.901C197.456 111.981 197.129 112.134 196.844 112.35Z" fill="black"/>
<path d="M185.383 185.405L195.039 179.515C195.193 179.44 195.368 179.421 195.534 179.46C195.701 179.499 195.849 179.594 195.953 179.73L200.076 186.846C200.208 186.988 200.308 187.157 200.368 187.341C200.427 187.526 200.445 187.722 200.42 187.914C200.396 188.106 200.328 188.291 200.224 188.454C200.119 188.618 199.98 188.756 199.816 188.859C196.971 190.345 196.755 190.211 193.212 192.157C191.036 193.361 186.683 196.087 183.674 197.743C180.666 199.4 178.601 196.436 179.492 195.277C182.798 191.006 183.711 189.335 184.491 186.542C184.557 186.302 184.669 186.079 184.823 185.884C184.976 185.688 185.166 185.526 185.383 185.405Z" fill="#407BFF"/>
<path opacity="0.8" d="M185.383 185.405L195.039 179.515C195.193 179.44 195.368 179.421 195.534 179.46C195.701 179.499 195.849 179.594 195.953 179.73L200.076 186.846C200.208 186.988 200.308 187.157 200.368 187.341C200.427 187.526 200.445 187.722 200.42 187.914C200.396 188.106 200.328 188.291 200.224 188.454C200.119 188.618 199.98 188.756 199.816 188.859C196.971 190.345 196.755 190.211 193.212 192.157C191.036 193.361 186.683 196.087 183.674 197.743C180.666 199.4 178.601 196.436 179.492 195.277C182.798 191.006 183.711 189.335 184.491 186.542C184.557 186.302 184.669 186.079 184.823 185.884C184.976 185.688 185.166 185.526 185.383 185.405Z" fill="white"/>
<path d="M260.971 196.577L204.384 254.523L194.646 234.78L241.004 187.307L260.971 196.577Z" fill="#407BFF"/>
<path opacity="0.4" d="M260.971 196.577L204.384 254.523L194.646 234.78L241.004 187.307L260.971 196.577Z" fill="black"/>
<path d="M254.345 209.888L217.539 247.586L201.056 224.833L231.214 193.955L254.345 209.888Z" fill="#407BFF"/>
<path opacity="0.3" d="M254.345 209.888L217.539 247.586L201.056 224.833L231.214 193.955L254.345 209.888Z" fill="black"/>
<path d="M150.352 197.862C150.352 197.862 164.837 213.29 177.279 226.713C179.012 228.63 180.213 230.968 180.761 233.494C181.31 236.019 181.188 238.645 180.406 241.108C177.531 250.765 181.743 267.798 181.743 267.798C167.979 256.061 131.017 245.796 150.352 197.862Z" fill="#407BFF"/>
<path opacity="0.3" d="M150.352 197.862C150.352 197.862 164.837 213.29 177.279 226.713C179.012 228.63 180.213 230.968 180.761 233.494C181.31 236.019 181.188 238.645 180.406 241.108C177.531 250.765 181.743 267.798 181.743 267.798C167.979 256.061 131.017 245.796 150.352 197.862Z" fill="black"/>
<path d="M203.047 143.904C203.047 143.904 218.817 158.018 232.529 170.14C234.487 171.826 236.852 172.971 239.389 173.459C241.926 173.948 244.547 173.764 246.991 172.926C256.544 169.821 273.733 173.632 273.733 173.632C261.647 160.15 250.512 123.44 203.047 143.904Z" fill="#407BFF"/>
<path opacity="0.3" d="M203.047 143.904C203.047 143.904 218.817 158.018 232.529 170.14C234.487 171.826 236.852 172.971 239.389 173.459C241.926 173.948 244.547 173.764 246.991 172.926C256.544 169.821 273.733 173.632 273.733 173.632C261.647 160.15 250.512 123.44 203.047 143.904Z" fill="black"/>
<path d="M166.909 106.712C135.897 79.711 102.418 71.3172 88.9142 85.1706C75.4099 99.024 84.5985 132.28 112.32 162.638L181.104 237.959C182.456 239.437 184.095 240.624 185.921 241.447C187.747 242.27 189.721 242.711 191.724 242.745C193.726 242.778 195.715 242.402 197.567 241.641C199.42 240.879 201.097 239.748 202.497 238.316L244.711 195.092C246.11 193.658 247.202 191.954 247.92 190.084C248.637 188.214 248.965 186.217 248.884 184.215C248.802 182.214 248.313 180.25 247.446 178.444C246.579 176.638 245.353 175.029 243.842 173.713L166.909 106.712Z" fill="#407BFF"/>
<path opacity="0.1" d="M203.374 226.936C203.755 227.125 204.086 227.402 204.34 227.744C204.594 228.085 204.764 228.482 204.836 228.902C204.909 229.321 204.881 229.752 204.756 230.159C204.631 230.566 204.412 230.937 204.117 231.244C199.585 235.924 191.006 234.735 185.353 228.637L117.111 155.098C103.399 140.324 93.6459 125.386 88.5948 112.84C87.1092 109.126 92.2643 106.519 94.411 109.869C101.252 120.558 111.451 133.319 124.22 146.623L196.05 221.357C198.167 223.608 200.641 225.493 203.374 226.936Z" fill="white"/>
<path opacity="0.1" d="M117.438 79.6962C110.5 79.4436 101.787 83.4102 94.6264 90.7343C87.4657 98.0584 83.7219 106.868 84.1305 113.806C81.3301 101.661 82.7934 91.4177 88.9067 85.1484C95.0201 78.8791 105.234 77.1781 117.438 79.6962Z" fill="black"/>
<path opacity="0.3" d="M141.418 162.29C155.967 162.001 167.526 149.972 167.236 135.424C166.947 120.875 154.918 109.316 140.37 109.606C125.821 109.895 114.262 121.924 114.552 136.472C114.841 151.021 126.87 162.58 141.418 162.29Z" fill="black"/>
<path d="M160.77 151.321C169.744 139.867 167.734 123.306 156.28 114.332C144.826 105.357 128.266 107.367 119.291 118.821C110.316 130.275 112.326 146.836 123.78 155.81C135.234 164.785 151.795 162.775 160.77 151.321Z" fill="white"/>
<path opacity="0.7" d="M157.995 150.753C166.646 140.829 165.614 125.772 155.691 117.122C145.767 108.471 130.71 109.503 122.059 119.426C113.409 129.35 114.44 144.407 124.364 153.057C134.287 161.708 149.344 160.676 157.995 150.753Z" fill="#407BFF"/>
<g opacity="0.2">
<path d="M122.979 118.411C120.709 120.717 118.939 123.465 117.78 126.486L129.189 156.302C133.798 158.644 139.043 159.426 144.135 158.53L127.421 114.838C125.803 115.847 124.311 117.046 122.979 118.411Z" fill="white"/>
<path d="M129.175 113.85L146.103 158.114C148.709 157.433 151.18 156.315 153.412 154.809L136.848 111.421C134.169 111.78 131.572 112.602 129.175 113.85Z" fill="white"/>
</g>
<path d="M229.446 187.485L234.49 177.42C234.581 177.277 234.719 177.169 234.88 177.115C235.04 177.061 235.215 177.064 235.374 177.123L242.505 180.465C242.692 180.515 242.866 180.606 243.014 180.73C243.162 180.855 243.281 181.011 243.362 181.187C243.443 181.363 243.484 181.555 243.482 181.749C243.481 181.942 243.436 182.133 243.352 182.308C241.747 185.071 241.621 185.561 239.638 189.075C238.434 191.236 236.198 195.834 234.535 198.82C232.871 201.806 229.55 200.388 229.691 198.939C230.219 193.583 230.085 191.667 229.275 188.919C229.206 188.68 229.185 188.431 229.215 188.184C229.244 187.938 229.323 187.7 229.446 187.485Z" fill="#407BFF"/>
<path opacity="0.8" d="M229.446 187.485L234.49 177.42C234.581 177.277 234.719 177.169 234.88 177.115C235.04 177.061 235.215 177.064 235.374 177.123L242.505 180.465C242.692 180.515 242.866 180.606 243.014 180.73C243.162 180.855 243.281 181.011 243.362 181.187C243.443 181.363 243.484 181.555 243.482 181.749C243.481 181.942 243.436 182.133 243.352 182.308C241.747 185.071 241.621 185.561 239.638 189.075C238.434 191.236 236.198 195.834 234.535 198.82C232.871 201.806 229.55 200.388 229.691 198.939C230.219 193.583 230.085 191.667 229.275 188.919C229.206 188.68 229.185 188.431 229.215 188.184C229.244 187.938 229.323 187.7 229.446 187.485Z" fill="white"/>
<path d="M192.751 99.7517C192.751 99.7517 192.818 131.366 199.615 146.645C207.058 163.418 229.907 189.416 229.907 189.416L238.523 180.762C238.523 180.762 227.656 156.993 217.569 144.283C217.361 128.625 219.054 111.54 214.895 97.345C207.584 98.6974 200.182 99.5019 192.751 99.7517Z" fill="#407BFF"/>
<path opacity="0.8" d="M192.751 99.7517C192.751 99.7517 192.818 131.366 199.615 146.645C207.058 163.418 229.907 189.416 229.907 189.416L238.523 180.762C238.523 180.762 227.656 156.993 217.569 144.283C217.361 128.625 219.054 111.54 214.895 97.345C207.584 98.6974 200.182 99.5019 192.751 99.7517Z" fill="white"/>
<path d="M213.795 99.7667C198.04 103.406 186.178 103.778 181.342 103.741C181.036 103.741 180.733 103.679 180.452 103.557C180.171 103.436 179.918 103.258 179.708 103.034C179.499 102.81 179.339 102.546 179.236 102.257C179.134 101.968 179.092 101.662 179.114 101.356C179.141 100.777 179.392 100.231 179.815 99.8344C180.238 99.4377 180.799 99.2215 181.379 99.2318C191.962 99.1303 202.499 97.837 212.793 95.3767C213.078 95.3082 213.374 95.2968 213.664 95.3431C213.954 95.3893 214.231 95.4924 214.481 95.6463C214.731 95.8002 214.948 96.0019 215.12 96.2399C215.291 96.4779 215.414 96.7475 215.482 97.0331C215.556 97.3235 215.572 97.6261 215.527 97.9226C215.482 98.2191 215.378 98.5035 215.22 98.7587C215.063 99.0139 214.855 99.2348 214.611 99.408C214.366 99.5812 214.088 99.7032 213.795 99.7667Z" fill="#263238"/>
<path d="M231.266 66.8083C229.929 63.7404 228.072 61.7051 225.569 59.551C220.614 55.265 212.443 48.6243 207.986 47.7329L202.571 65.2112L216.804 70.4629C219.619 72.4685 220.25 73.7907 221.082 77.0516C221.58 78.968 221.944 81.0108 222.3 83.0906C222.961 87.2429 223.422 91.6626 223.86 95.9264L231.288 96.5652C231.836 94.2637 232.265 91.9357 232.573 89.5902C232.878 87.2652 233.108 84.9105 233.197 82.5187C233.313 80.0723 233.273 77.6211 233.078 75.1797C232.931 72.3096 232.318 69.4825 231.266 66.8083Z" fill="#407BFF"/>
<path opacity="0.8" d="M231.266 66.8083C229.929 63.7404 228.072 61.7051 225.569 59.551C220.614 55.265 212.443 48.6243 207.986 47.7329L202.571 65.2112L216.804 70.4629C219.619 72.4685 220.25 73.7907 221.082 77.0516C221.58 78.968 221.944 81.0108 222.3 83.0906C222.961 87.2429 223.422 91.6626 223.86 95.9264L231.288 96.5652C231.836 94.2637 232.265 91.9357 232.573 89.5902C232.878 87.2652 233.108 84.9105 233.197 82.5187C233.313 80.0723 233.273 77.6211 233.078 75.1797C232.931 72.3096 232.318 69.4825 231.266 66.8083Z" fill="white"/>
<path d="M233.524 85.0293H221.803C221.803 85.0293 220.993 103.481 225.762 105.159C230.694 106.92 232.893 94.9681 233.524 85.0293Z" fill="#263238"/>
<path d="M225.116 95.9561L222.1 92.5688C222.1 92.5688 219.285 100.272 221 101.223C222.716 102.173 224.142 100.279 225.116 95.9561Z" fill="#263238"/>
<path opacity="0.2" d="M196.406 47.7181C191.56 48.3285 186.748 49.1839 181.988 50.2808C180.168 50.7561 178.415 51.3281 176.907 51.8555C180.149 53.0386 183.637 53.3811 187.047 52.8509C188.265 52.6492 189.454 52.3025 190.59 51.8184C193.858 50.9985 196.919 49.5059 199.578 47.4358C198.53 47.4878 197.461 47.5769 196.406 47.7181Z" fill="black"/>
<path d="M190.642 33.9983C190.568 38.2249 191.102 45.8832 194.445 48.0671C194.445 48.0671 194.49 49.9167 187.582 51.1275C181.944 52.1154 181.75 50.3252 181.75 50.3252C186.111 48.4236 185.39 45.0661 184.031 42.0355L190.642 33.9983Z" fill="#FFB573"/>
<path opacity="0.2" d="M187.931 37.2742L184.024 42.0356C184.347 42.7375 184.611 43.4656 184.811 44.212C186.512 43.6549 188.562 41.3225 188.421 39.4655C188.389 38.7117 188.223 37.9696 187.931 37.2742Z" fill="black"/>
<path d="M177.724 33.5379C175.726 30.8266 173.468 26.8972 174.441 24.951C175.414 23.0049 179.47 21.8684 181.312 23.2946C183.622 25.0996 181.936 30.7078 177.724 33.5379Z" fill="#263238"/>
<path d="M190.902 28.2267C191.073 33.8497 191.459 37.1404 188.896 40.2676C185.041 44.977 177.903 43.0457 176.053 37.5861C174.397 32.6835 174.404 24.2749 179.671 21.5414C180.832 20.9358 182.129 20.6371 183.438 20.6739C184.747 20.7107 186.025 21.0817 187.151 21.7516C188.276 22.4215 189.212 23.3681 189.868 24.5014C190.525 25.6347 190.881 26.9171 190.902 28.2267Z" fill="#FFB573"/>
<path d="M190.709 33.4784C188.213 31.2499 185.219 27.8107 185.791 25.7086C186.363 23.6064 190.107 21.69 192.194 22.7374C194.816 24.0298 194.274 29.8683 190.709 33.4784Z" fill="#263238"/>
<path d="M187.931 25.3594C184.09 26.4216 173.23 28.5609 174.753 23.9852C176.276 19.4095 182.248 18.5404 184.41 19.5284C186.571 20.5163 188.28 17.9016 188.28 17.9016C188.592 18.6444 186.935 20.6871 184.566 21.0214C182.196 21.3557 194.802 19.1644 191.496 23.651C188.191 28.1375 187.931 25.3594 187.931 25.3594Z" fill="#263238"/>
<path d="M193.999 34.1691C193.682 34.7939 193.244 35.3498 192.712 35.8049C192.179 36.26 191.561 36.6053 190.895 36.8209C189.112 37.3929 188.154 35.8107 188.592 34.0874C188.985 32.5349 190.397 30.3734 192.217 30.5591C192.614 30.6056 192.994 30.7508 193.321 30.9815C193.648 31.2121 193.912 31.5209 194.089 31.8797C194.266 32.2385 194.351 32.6359 194.335 33.0358C194.32 33.4356 194.204 33.8252 193.999 34.1691Z" fill="#FFB573"/>
<path d="M182.568 30.5444C182.612 30.9975 182.404 31.3912 182.107 31.4209C181.81 31.4506 181.535 31.1015 181.491 30.6781C181.446 30.2547 181.654 29.8313 181.951 29.809C182.248 29.7867 182.523 30.0913 182.568 30.5444Z" fill="#263238"/>
<path d="M177.42 31.0197C177.464 31.4728 177.256 31.8665 176.959 31.8888C176.662 31.9111 176.38 31.5694 176.343 31.146C176.306 30.7226 176.506 30.2992 176.803 30.2695C177.1 30.2398 177.375 30.5592 177.42 31.0197Z" fill="#263238"/>
<path d="M179.076 31.094C178.662 32.5357 178.049 33.9131 177.257 35.1869C177.589 35.3843 177.962 35.5054 178.347 35.5414C178.733 35.5773 179.121 35.5273 179.485 35.3949L179.076 31.094Z" fill="#ED893E"/>
<path d="M183.177 35.6103C182.547 36.1403 181.769 36.4621 180.948 36.5314C180.913 36.5314 180.879 36.5173 180.854 36.4923C180.829 36.4672 180.815 36.4332 180.815 36.3977C180.815 36.3622 180.829 36.3282 180.854 36.3032C180.879 36.2781 180.913 36.264 180.948 36.264C181.517 36.2256 182.068 36.0535 182.557 35.7618C183.046 35.4701 183.46 35.0669 183.764 34.5852C183.771 34.5696 183.782 34.5558 183.796 34.5446C183.809 34.5334 183.825 34.5251 183.841 34.5202C183.858 34.5153 183.876 34.5139 183.893 34.5162C183.91 34.5184 183.927 34.5242 183.942 34.5333C183.973 34.5492 183.997 34.5768 184.008 34.6102C184.019 34.6436 184.017 34.68 184.001 34.7115C183.782 35.0573 183.502 35.3615 183.177 35.6103Z" fill="#263238"/>
<path d="M184.112 28.6797C184.063 28.7278 183.996 28.7547 183.927 28.7547C183.857 28.7547 183.791 28.7278 183.741 28.6797C183.522 28.4237 183.246 28.223 182.935 28.094C182.624 27.9649 182.287 27.9111 181.951 27.9369C181.916 27.9433 181.88 27.9425 181.845 27.9347C181.81 27.9269 181.777 27.9122 181.748 27.8914C181.719 27.8706 181.694 27.8442 181.675 27.8138C181.657 27.7833 181.644 27.7494 181.639 27.7141C181.628 27.6433 181.645 27.5711 181.687 27.5128C181.729 27.4546 181.791 27.4148 181.862 27.4021C182.287 27.3602 182.715 27.4205 183.112 27.5782C183.509 27.7359 183.862 27.9862 184.142 28.3083C184.167 28.3332 184.187 28.3627 184.2 28.3952C184.214 28.4277 184.221 28.4625 184.221 28.4977C184.221 28.5329 184.214 28.5678 184.2 28.6003C184.187 28.6328 184.167 28.6623 184.142 28.6872L184.112 28.6797Z" fill="#263238"/>
<path d="M175.154 29.3929C175.118 29.4235 175.074 29.4438 175.027 29.4516C174.98 29.4594 174.932 29.4546 174.887 29.4375C174.854 29.4259 174.823 29.4078 174.798 29.3842C174.772 29.3605 174.751 29.3319 174.736 29.3C174.722 29.268 174.714 29.2335 174.713 29.1984C174.712 29.1633 174.718 29.1284 174.731 29.0958C174.873 28.6932 175.108 28.3301 175.418 28.0368C175.728 27.7436 176.104 27.5285 176.514 27.4096C176.548 27.4023 176.584 27.4019 176.619 27.4084C176.654 27.4149 176.687 27.4282 176.717 27.4475C176.746 27.4668 176.772 27.4918 176.792 27.5209C176.812 27.5501 176.826 27.583 176.833 27.6176C176.841 27.6522 176.841 27.688 176.834 27.7228C176.828 27.7576 176.815 27.7907 176.795 27.8204C176.776 27.8501 176.751 27.8756 176.722 27.8956C176.693 27.9156 176.66 27.9297 176.625 27.937C176.303 28.0343 176.008 28.2069 175.765 28.4407C175.522 28.6745 175.338 28.9627 175.229 29.2815C175.213 29.3238 175.187 29.3619 175.154 29.3929Z" fill="#263238"/>
<path d="M203.166 31.8517C204.904 41.0402 199.518 49.7311 191.028 51.7664C190.701 51.8407 190.367 51.9075 190.033 51.967C185.939 52.6674 181.733 51.7772 178.274 49.4785C180.623 50.0631 183.082 50.0486 185.424 49.4363C187.766 48.824 189.917 47.6335 191.68 45.974C193.443 44.3145 194.761 42.239 195.513 39.9379C196.265 37.6368 196.428 35.1837 195.986 32.8034C195.544 30.4231 194.511 28.1919 192.983 26.3143C191.455 24.4367 189.479 22.9728 187.238 22.0568C184.997 21.1407 182.562 20.8019 180.157 21.0714C177.751 21.3409 175.451 22.21 173.468 23.5991C175.131 21.3652 177.349 19.6037 179.901 18.4885C181.046 17.9956 182.245 17.6391 183.474 17.4263C192.543 15.8516 201.353 22.2843 203.166 31.8517Z" fill="#407BFF"/>
<path opacity="0.8" d="M203.166 31.8517C204.904 41.0402 199.518 49.7311 191.028 51.7664C190.701 51.8407 190.367 51.9075 190.033 51.967C185.939 52.6674 181.733 51.7772 178.274 49.4785C180.623 50.0631 183.082 50.0486 185.424 49.4363C187.766 48.824 189.917 47.6335 191.68 45.974C193.443 44.3145 194.761 42.239 195.513 39.9379C196.265 37.6368 196.428 35.1837 195.986 32.8034C195.544 30.4231 194.511 28.1919 192.983 26.3143C191.455 24.4367 189.479 22.9728 187.238 22.0568C184.997 21.1407 182.562 20.8019 180.157 21.0714C177.751 21.3409 175.451 22.21 173.468 23.5991C175.131 21.3652 177.349 19.6037 179.901 18.4885C181.046 17.9956 182.245 17.6391 183.474 17.4263C192.543 15.8516 201.353 22.2843 203.166 31.8517Z" fill="white"/>
<path d="M199.816 32.9659C201.443 41.1814 197.639 48.8992 191.066 51.7664C190.004 52.2219 188.892 52.5486 187.753 52.7395C182.389 53.616 177.071 51.3653 173.394 47.213C175.551 48.7552 178.091 49.6747 180.735 49.8709C183.379 50.0672 186.027 49.5326 188.388 48.3257C190.749 47.1188 192.733 45.286 194.123 43.0277C195.512 40.7694 196.254 38.1725 196.268 35.5209C196.281 32.8692 195.565 30.265 194.198 27.9928C192.831 25.7206 190.866 23.8679 188.517 22.6373C186.168 21.4067 183.527 20.8456 180.88 21.0152C178.234 21.1848 175.685 22.0787 173.513 23.5991C172.105 24.5744 170.887 25.7977 169.918 27.2091C170.786 25.0695 172.146 23.1648 173.889 21.6496C175.631 20.1344 177.706 19.0514 179.946 18.4886C180.265 18.4143 180.584 18.3549 180.904 18.2954C189.416 16.8767 197.899 23.458 199.816 32.9659Z" fill="#407BFF"/>
<path opacity="0.6" d="M199.816 32.9659C201.443 41.1814 197.639 48.8992 191.066 51.7664C190.004 52.2219 188.892 52.5486 187.753 52.7395C182.389 53.616 177.071 51.3653 173.394 47.213C175.551 48.7552 178.091 49.6747 180.735 49.8709C183.379 50.0672 186.027 49.5326 188.388 48.3257C190.749 47.1188 192.733 45.286 194.123 43.0277C195.512 40.7694 196.254 38.1725 196.268 35.5209C196.281 32.8692 195.565 30.265 194.198 27.9928C192.831 25.7206 190.866 23.8679 188.517 22.6373C186.168 21.4067 183.527 20.8456 180.88 21.0152C178.234 21.1848 175.685 22.0787 173.513 23.5991C172.105 24.5744 170.887 25.7977 169.918 27.2091C170.786 25.0695 172.146 23.1648 173.889 21.6496C175.631 20.1344 177.706 19.0514 179.946 18.4886C180.265 18.4143 180.584 18.3549 180.904 18.2954C189.416 16.8767 197.899 23.458 199.816 32.9659Z" fill="white"/>
<path opacity="0.2" d="M196.22 34.7561C196.357 37.6131 195.643 40.4464 194.169 42.8977C192.695 45.3489 190.527 47.3082 187.94 48.5275C185.353 49.7469 182.462 50.1718 179.633 49.7483C176.804 49.3248 174.165 48.0721 172.048 46.1484C169.931 44.2248 168.432 41.7167 167.741 38.9413C167.049 36.1659 167.196 33.2477 168.163 30.5559C169.13 27.864 170.874 25.5193 173.173 23.8182C175.473 22.1172 178.225 21.1362 181.082 20.9992C182.979 20.9083 184.876 21.192 186.664 21.8342C188.451 22.4764 190.095 23.4644 191.501 24.7419C192.906 26.0194 194.047 27.5613 194.857 29.2795C195.666 30.9978 196.13 32.8587 196.22 34.7561Z" fill="#407BFF"/>
<path opacity="0.2" d="M167.325 36.1377C167.508 39.9694 169.206 43.5714 172.045 46.1514C174.884 48.7313 178.632 50.0777 182.464 49.8945C186.295 49.7113 189.897 48.0134 192.477 45.1744C195.057 42.3354 196.404 38.5878 196.22 34.756C189.728 33.2927 174.025 32.2676 167.325 36.1377Z" fill="#407BFF"/>
<path opacity="0.2" d="M198.404 69.8761C191.777 70.2737 185.189 71.1551 178.69 72.5131L178.326 72.1788L197.699 58.9197L198.055 59.2539C198.055 59.2539 198.211 66.3552 198.404 69.8761Z" fill="black"/>
<path d="M198.048 69.5418C191.418 69.9399 184.827 70.8213 178.326 72.1788C177.962 68.6208 177.68 65.0404 177.501 61.4304C184.168 60.1271 190.916 59.2882 197.698 58.9197C197.738 62.4802 197.854 66.0209 198.048 69.5418Z" fill="white"/>
<path opacity="0.3" d="M193.821 62.3514C193.82 62.6128 193.743 62.8684 193.601 63.0877C193.459 63.3071 193.257 63.481 193.019 63.5889C192.78 63.6968 192.516 63.7342 192.258 63.6965C191.999 63.6589 191.756 63.5478 191.559 63.3765C191.361 63.2053 191.217 62.9809 191.143 62.7301C191.069 62.4793 191.069 62.2126 191.142 61.9616C191.215 61.7106 191.359 61.4858 191.556 61.314C191.753 61.1421 191.995 61.0304 192.254 60.992C192.641 60.9694 193.021 61.0988 193.314 61.3528C193.607 61.6068 193.789 61.9651 193.821 62.3514Z" fill="#407BFF"/>
<path opacity="0.3" d="M193.94 66.578C193.939 66.8398 193.863 67.0958 193.72 67.3154C193.578 67.5351 193.375 67.7092 193.136 67.8171C192.898 67.925 192.633 67.962 192.374 67.9239C192.115 67.8858 191.873 67.7742 191.675 67.6022C191.478 67.4302 191.334 67.2051 191.261 66.9537C191.188 66.7023 191.188 66.4352 191.263 66.1842C191.337 65.9331 191.482 65.7087 191.68 65.5375C191.878 65.3663 192.121 65.2557 192.38 65.2187C192.766 65.198 193.144 65.3284 193.436 65.5822C193.727 65.8359 193.908 66.1931 193.94 66.578Z" fill="#407BFF"/>
<path d="M180.763 69.1407C183.164 68.7112 185.587 68.4062 188.02 68.227C186.408 65.9986 183.994 62.188 183.994 62.188C182.789 64.4438 181.71 66.7649 180.763 69.1407Z" fill="#407BFF"/>
</svg>
