<svg width="7" height="31" viewBox="0 0 7 31" fill="none" xmlns="http://www.w3.org/2000/svg">
<path d="M6.4375 27.25C6.4375 27.831 6.26522 28.3989 5.94244 28.882C5.61967 29.3651 5.16089 29.7416 4.62414 29.9639C4.08738 30.1862 3.49674 30.2444 2.92692 30.1311C2.3571 30.0177 1.83369 29.7379 1.42288 29.3271C1.01206 28.9163 0.732289 28.3929 0.618945 27.8231C0.5056 27.2533 0.563773 26.6626 0.786105 26.1259C1.00844 25.5891 1.38494 25.1303 1.86801 24.8076C2.35108 24.4848 2.91902 24.3125 3.5 24.3125C4.27908 24.3125 5.02624 24.622 5.57713 25.1729C6.12802 25.7238 6.4375 26.4709 6.4375 27.25ZM3.5 6.6875C4.08098 6.6875 4.64892 6.51522 5.13199 6.19244C5.61506 5.86967 5.99157 5.41089 6.2139 4.87413C6.43623 4.33738 6.4944 3.74674 6.38106 3.17692C6.26771 2.6071 5.98794 2.08369 5.57713 1.67288C5.16631 1.26206 4.6429 0.982289 4.07308 0.868945C3.50326 0.7556 2.91263 0.813773 2.37587 1.03611C1.83911 1.25844 1.38034 1.63494 1.05756 2.11801C0.734783 2.60108 0.562502 3.16902 0.562502 3.75C0.562502 4.52908 0.871988 5.27624 1.42288 5.82713C1.97376 6.37802 2.72093 6.6875 3.5 6.6875ZM3.5 12.5625C2.91902 12.5625 2.35108 12.7348 1.86801 13.0576C1.38494 13.3803 1.00844 13.8391 0.786105 14.3759C0.563773 14.9126 0.5056 15.5033 0.618945 16.0731C0.732289 16.6429 1.01206 17.1663 1.42288 17.5771C1.83369 17.9879 2.3571 18.2677 2.92692 18.3811C3.49674 18.4944 4.08738 18.4362 4.62414 18.2139C5.16089 17.9916 5.61967 17.6151 5.94244 17.132C6.26522 16.6489 6.4375 16.081 6.4375 15.5C6.4375 14.7209 6.12802 13.9738 5.57713 13.4229C5.02624 12.872 4.27908 12.5625 3.5 12.5625Z" fill="#37547B"/>
</svg>
