<svg width="46" height="46" viewBox="0 0 46 46" fill="none" xmlns="http://www.w3.org/2000/svg">
<path d="M41.8255 14.2428C41.6492 13.988 41.4138 13.7797 41.1394 13.6359C40.865 13.492 40.5598 13.4168 40.25 13.4167H14.0549L11.8431 8.10751C11.5531 7.40835 11.062 6.81105 10.4321 6.39135C9.80219 5.97164 9.06185 5.74843 8.30493 5.75001H3.83334V9.58334H8.30493L17.3976 31.4046C17.5432 31.7537 17.7889 32.0519 18.1037 32.2617C18.4185 32.4715 18.7884 32.5834 19.1667 32.5833H34.5C35.2993 32.5833 36.0142 32.0869 36.2959 31.3413L42.0459 16.008C42.1546 15.7179 42.1913 15.4057 42.1529 15.0983C42.1145 14.7908 42.0022 14.4973 41.8255 14.2428Z" fill="white"/>
<path d="M20.125 40.25C21.7128 40.25 23 38.9628 23 37.375C23 35.7872 21.7128 34.5 20.125 34.5C18.5372 34.5 17.25 35.7872 17.25 37.375C17.25 38.9628 18.5372 40.25 20.125 40.25Z" fill="white"/>
<path d="M33.5417 40.25C35.1295 40.25 36.4167 38.9628 36.4167 37.375C36.4167 35.7872 35.1295 34.5 33.5417 34.5C31.9538 34.5 30.6667 35.7872 30.6667 37.375C30.6667 38.9628 31.9538 40.25 33.5417 40.25Z" fill="white"/>
</svg>
