<svg width="60" height="60" viewBox="0 0 60 60" fill="none" xmlns="http://www.w3.org/2000/svg">
<path fill-rule="evenodd" clip-rule="evenodd" d="M30 52.5C42.4263 52.5 52.5 42.4263 52.5 30C52.5 17.5737 42.4263 7.5 30 7.5C17.5737 7.5 7.5 17.5737 7.5 30C7.5 42.4263 17.5737 52.5 30 52.5ZM30 55C43.8075 55 55 43.8075 55 30C55 16.1925 43.8075 5 30 5C16.1925 5 5 16.1925 5 30C5 43.8075 16.1925 55 30 55Z" fill="white"/>
<path d="M15 44.5375C15 43.2462 15.965 42.155 17.25 42.0125C26.8938 40.945 33.15 41.0412 42.7725 42.0362C43.253 42.0867 43.7084 42.276 44.0831 42.581C44.4578 42.886 44.7356 43.2936 44.8825 43.7539C45.0294 44.2141 45.039 44.7072 44.9103 45.1729C44.7815 45.6386 44.52 46.0567 44.1575 46.3762C32.8013 56.275 26.3113 56.1387 15.8 46.3862C15.2875 45.9112 15 45.2362 15 44.5387V44.5375Z" fill="white"/>
<path fill-rule="evenodd" clip-rule="evenodd" d="M42.6438 43.2788C33.0975 42.2913 26.9313 42.1988 17.3863 43.2551C17.0721 43.2917 16.7824 43.4429 16.5728 43.6798C16.3631 43.9167 16.2482 44.2225 16.25 44.5388C16.25 44.8963 16.3988 45.2351 16.65 45.4701C21.86 50.3026 25.8075 52.4863 29.6663 52.5001C33.5388 52.5138 37.6988 50.3476 43.3363 45.4351C43.5154 45.2757 43.6443 45.0677 43.7074 44.8364C43.7705 44.605 43.765 44.3604 43.6917 44.1321C43.6183 43.9039 43.4802 43.7018 43.2942 43.5505C43.1082 43.3993 42.8822 43.3053 42.6438 43.2801V43.2788ZM17.1125 40.7701C26.8575 39.6913 33.205 39.7888 42.9025 40.7926C43.6254 40.868 44.3106 41.1526 44.8742 41.6115C45.4378 42.0704 45.8554 42.6836 46.0759 43.3762C46.2964 44.0688 46.3101 44.8106 46.1155 45.5108C45.9208 46.2111 45.5262 46.8394 44.98 47.3188C39.2613 52.3038 34.4988 55.0188 29.6588 55.0001C24.805 54.9826 20.2525 52.2213 14.9513 47.3026C14.5717 46.9491 14.2691 46.521 14.0624 46.0453C13.8557 45.5696 13.7494 45.0563 13.75 44.5376C13.7482 43.6056 14.0903 42.7058 14.7107 42.0103C15.3312 41.3149 16.1864 40.8729 17.1125 40.7688V40.7701Z" fill="white"/>
<path d="M40 25C40 27.6522 38.9464 30.1957 37.0711 32.0711C35.1957 33.9464 32.6522 35 30 35C27.3478 35 24.8043 33.9464 22.9289 32.0711C21.0536 30.1957 20 27.6522 20 25C20 22.3478 21.0536 19.8043 22.9289 17.9289C24.8043 16.0536 27.3478 15 30 15C32.6522 15 35.1957 16.0536 37.0711 17.9289C38.9464 19.8043 40 22.3478 40 25Z" fill="white"/>
<path fill-rule="evenodd" clip-rule="evenodd" d="M30 32.5C31.9891 32.5 33.8968 31.7098 35.3033 30.3033C36.7098 28.8968 37.5 26.9891 37.5 25C37.5 23.0109 36.7098 21.1032 35.3033 19.6967C33.8968 18.2902 31.9891 17.5 30 17.5C28.0109 17.5 26.1032 18.2902 24.6967 19.6967C23.2902 21.1032 22.5 23.0109 22.5 25C22.5 26.9891 23.2902 28.8968 24.6967 30.3033C26.1032 31.7098 28.0109 32.5 30 32.5ZM30 35C32.6522 35 35.1957 33.9464 37.0711 32.0711C38.9464 30.1957 40 27.6522 40 25C40 22.3478 38.9464 19.8043 37.0711 17.9289C35.1957 16.0536 32.6522 15 30 15C27.3478 15 24.8043 16.0536 22.9289 17.9289C21.0536 19.8043 20 22.3478 20 25C20 27.6522 21.0536 30.1957 22.9289 32.0711C24.8043 33.9464 27.3478 35 30 35Z" fill="white"/>
</svg>
