<svg width="42" height="42" viewBox="0 0 42 42" fill="none" xmlns="http://www.w3.org/2000/svg">
<path d="M21 3.5C16.377 3.55896 11.96 5.42163 8.69082 8.69082C5.42163 11.96 3.55896 16.377 3.5 21C3.52161 23.6931 4.16451 26.3449 5.37865 28.7489C6.59278 31.1528 8.34538 33.2442 10.5 34.86V35H10.675C13.6381 37.2706 17.267 38.5011 21 38.5011C24.733 38.5011 28.3619 37.2706 31.325 35H31.5V34.86C33.6546 33.2442 35.4072 31.1528 36.6214 28.7489C37.8355 26.3449 38.4784 23.6931 38.5 21C38.441 16.377 36.5784 11.96 33.3092 8.69082C30.04 5.42163 25.623 3.55896 21 3.5ZM14.1225 33.1275C14.378 31.9575 15.0258 30.91 15.9584 30.1588C16.891 29.4076 18.0525 28.9979 19.25 28.9975H22.75C23.9475 28.9979 25.109 29.4076 26.0416 30.1588C26.9742 30.91 27.622 31.9575 27.8775 33.1275C25.793 34.3539 23.4185 35.0006 21 35.0006C18.5815 35.0006 16.207 34.3539 14.1225 33.1275ZM30.8175 30.87C30.1518 29.2792 29.031 27.9205 27.5956 26.9646C26.1603 26.0088 24.4745 25.4984 22.75 25.4975H19.25C17.5255 25.4984 15.8397 26.0088 14.4044 26.9646C12.969 27.9205 11.8482 29.2792 11.1825 30.87C9.87116 29.5802 8.82683 28.0447 8.10917 26.3512C7.39152 24.6576 7.01462 22.8393 7 21C7.04539 17.3011 8.53496 13.7664 11.1507 11.1507C13.7664 8.53496 17.3011 7.04539 21 7C24.6989 7.04539 28.2336 8.53496 30.8493 11.1507C33.465 13.7664 34.9546 17.3011 35 21C34.9854 22.8393 34.6085 24.6576 33.8908 26.3512C33.1732 28.0447 32.1288 29.5802 30.8175 30.87Z" fill="#4A97FE"/>
<path d="M21 10.5C20.0749 10.4785 19.155 10.6448 18.296 10.989C17.4369 11.3331 16.6566 11.8479 16.0023 12.5023C15.3479 13.1566 14.8331 13.9369 14.489 14.796C14.1448 15.655 13.9785 16.5749 14 17.5C13.9785 18.4252 14.1448 19.3451 14.489 20.2041C14.8331 21.0631 15.3479 21.8434 16.0023 22.4978C16.6566 23.1521 17.4369 23.6669 18.296 24.0111C19.155 24.3552 20.0749 24.5216 21 24.5C21.9252 24.5216 22.8451 24.3552 23.7041 24.0111C24.5631 23.6669 25.3434 23.1521 25.9978 22.4978C26.6521 21.8434 27.1669 21.0631 27.5111 20.2041C27.8552 19.3451 28.0216 18.4252 28 17.5C28.0216 16.5749 27.8552 15.655 27.5111 14.796C27.1669 13.9369 26.6521 13.1566 25.9978 12.5023C25.3434 11.8479 24.5631 11.3331 23.7041 10.989C22.8451 10.6448 21.9252 10.4785 21 10.5ZM21 21C20.5344 21.0225 20.0693 20.9474 19.6345 20.7795C19.1996 20.6116 18.8047 20.3545 18.4751 20.0249C18.1455 19.6953 17.8885 19.3004 17.7206 18.8656C17.5526 18.4308 17.4775 17.9656 17.5 17.5C17.4775 17.0344 17.5526 16.5693 17.7206 16.1345C17.8885 15.6996 18.1455 15.3047 18.4751 14.9751C18.8047 14.6455 19.1996 14.3885 19.6345 14.2206C20.0693 14.0526 20.5344 13.9775 21 14C21.4656 13.9775 21.9308 14.0526 22.3656 14.2206C22.8004 14.3885 23.1953 14.6455 23.5249 14.9751C23.8545 15.3047 24.1116 15.6996 24.2795 16.1345C24.4474 16.5693 24.5225 17.0344 24.5 17.5C24.5225 17.9656 24.4474 18.4308 24.2795 18.8656C24.1116 19.3004 23.8545 19.6953 23.5249 20.0249C23.1953 20.3545 22.8004 20.6116 22.3656 20.7795C21.9308 20.9474 21.4656 21.0225 21 21Z" fill="#4A97FE"/>
</svg>
